<svg xmlns="http://www.w3.org/2000/svg" version="1.1" xmlns:xlink="http://www.w3.org/1999/xlink" viewBox="0 0 200 200"><rect width="200" height="200" fill="url('#gradient')"></rect><defs><linearGradient id="gradient" gradientTransform="rotate(209 0.5 0.5)"><stop offset="0%" stop-color="#e0e0e0"></stop><stop offset="100%" stop-color="#ffffff"></stop></linearGradient></defs><g><g fill="#ffffff" transform="matrix(6.021583198707593,0,0,6.021583198707593,2.1192787247366596,139.11420334395376)" stroke="#e0e0e0" stroke-width="0.4"><path d="M2.96-3.19L2.96-3.19Q3.74-3.19 4.26-2.73Q4.78-2.27 4.78-1.54Q4.78-0.82 4.26-0.36Q3.74 0.11 2.96 0.11L2.96 0.11Q2.17 0.11 1.66-0.36Q1.14-0.83 1.14-1.54Q1.14-2.26 1.66-2.72Q2.17-3.19 2.96-3.19ZM16.21 0L12.92 0Q12.74-0.32 12.61-0.95L12.61-0.95Q11.70 0.20 10.07 0.20L10.07 0.20Q8.57 0.20 7.53-0.71Q6.48-1.61 6.48-2.98L6.48-2.98Q6.48-4.70 7.75-5.58Q9.02-6.46 11.45-6.46L11.45-6.46L12.46-6.46L12.46-7.01Q12.46-8.47 11.20-8.47L11.20-8.47Q10.03-8.47 10.03-7.31L10.03-7.31L6.74-7.31Q6.74-8.85 8.04-9.80Q9.35-10.76 11.37-10.76Q13.39-10.76 14.56-9.78Q15.73-8.79 15.76-7.07L15.76-7.07L15.76-2.39Q15.78-0.94 16.21-0.17L16.21-0.17L16.21 0ZM10.86-2.15L10.86-2.15Q11.47-2.15 11.88-2.41Q12.29-2.68 12.46-3.01L12.46-3.01L12.46-4.70L11.50-4.70Q9.79-4.70 9.79-3.15L9.79-3.15Q9.79-2.71 10.09-2.43Q10.39-2.15 10.86-2.15ZM24.03-10.64L23.97-7.59L22.89-7.67Q21.34-7.67 20.90-6.69L20.90-6.69L20.90 0L17.61 0L17.61-10.57L20.69-10.57L20.80-9.21Q21.63-10.76 23.12-10.76L23.12-10.76Q23.64-10.76 24.03-10.64L24.03-10.64ZM26.19-13.19L29.48-13.19L29.48-10.57L31.22-10.57L31.22-8.28L29.48-8.28L29.48-3.45Q29.48-2.85 29.70-2.62Q29.91-2.38 30.55-2.38L30.55-2.38Q31.04-2.38 31.37-2.44L31.37-2.44L31.37-0.09Q30.48 0.20 29.51 0.20L29.51 0.20Q27.81 0.20 27.00-0.61Q26.19-1.41 26.19-3.04L26.19-3.04L26.19-8.28L24.84-8.28L24.84-10.57L26.19-10.57L26.19-13.19Z"></path></g></g></svg>