<svg xmlns="http://www.w3.org/2000/svg" version="1.1" xmlns:xlink="http://www.w3.org/1999/xlink" viewBox="0 0 200 200"><rect width="200" height="200" fill="url('#gradient')"></rect><defs><linearGradient id="gradient" gradientTransform="rotate(60 0.5 0.5)"><stop offset="0%" stop-color="#001538"></stop><stop offset="100%" stop-color="#ffffff"></stop></linearGradient></defs><g><g fill="#ffffff" transform="matrix(2.828171236930361,0,0,2.828171236930361,27.738467062135783,120.11255467942209)" stroke="#001538" stroke-width="0.2"><path d="M12.71-7.60L12.71-1.76Q11.92-0.88 10.40-0.34Q8.88 0.20 7.06 0.20L7.06 0.20Q4.27 0.20 2.60-1.51Q0.93-3.22 0.81-6.27L0.81-6.27L0.80-7.50Q0.80-9.60 1.54-11.17Q2.29-12.73 3.67-13.58Q5.05-14.42 6.87-14.42L6.87-14.42Q9.52-14.42 10.99-13.21Q12.46-11.99 12.71-9.58L12.71-9.58L9.40-9.58Q9.23-10.77 8.64-11.28Q8.06-11.79 6.98-11.79L6.98-11.79Q5.69-11.79 4.99-10.69Q4.29-9.60 4.28-7.57L4.28-7.57L4.28-6.71Q4.28-4.58 5.00-3.51Q5.73-2.44 7.29-2.44L7.29-2.44Q8.63-2.44 9.29-3.04L9.29-3.04L9.29-5.24L6.90-5.24L6.90-7.60L12.71-7.60ZM20.32-4.82L18.13-4.82L18.13 0L14.71 0L14.71-14.22L20.38-14.22Q22.01-14.22 23.27-13.62Q24.52-13.02 25.21-11.91Q25.90-10.80 25.90-9.39L25.90-9.39Q25.90-7.31 24.41-6.07Q22.92-4.82 20.32-4.82L20.32-4.82ZM18.13-11.57L18.13-7.47L20.38-7.47Q21.38-7.47 21.90-7.97Q22.42-8.47 22.42-9.38L22.42-9.38Q22.42-10.37 21.88-10.97Q21.35-11.56 20.42-11.57L20.42-11.57L18.13-11.57ZM36.68-8.30L36.68-5.66L31.15-5.66L31.15 0L27.72 0L27.72-14.22L37.24-14.22L37.24-11.57L31.15-11.57L31.15-8.30L36.68-8.30ZM50.30-7.60L50.30-1.76Q49.51-0.88 47.99-0.34Q46.46 0.20 44.65 0.20L44.65 0.20Q41.86 0.20 40.19-1.51Q38.52-3.22 38.40-6.27L38.40-6.27L38.39-7.50Q38.39-9.60 39.13-11.17Q39.87-12.73 41.25-13.58Q42.64-14.42 44.45-14.42L44.45-14.42Q47.11-14.42 48.58-13.21Q50.05-11.99 50.29-9.58L50.29-9.58L46.99-9.58Q46.82-10.77 46.23-11.28Q45.64-11.79 44.57-11.79L44.57-11.79Q43.28-11.79 42.58-10.69Q41.88-9.60 41.87-7.57L41.87-7.57L41.87-6.71Q41.87-4.58 42.59-3.51Q43.32-2.44 44.88-2.44L44.88-2.44Q46.22-2.44 46.88-3.04L46.88-3.04L46.88-5.24L44.49-5.24L44.49-7.60L50.30-7.60Z"></path></g></g></svg>